<?xml version="1.0" encoding="UTF-8"?>
<svg id="Camada_4" data-name="Camada 4" xmlns="http://www.w3.org/2000/svg" viewBox="0 0 841.89 595.28">
  <defs>
    <style>
      .cls-1, .cls-2, .cls-3 {
        fill: #6c1e23;
      }

      .cls-4 {
        fill: #eee6d5;
      }

      .cls-5 {
        letter-spacing: 0em;
      }

      .cls-6 {
        letter-spacing: 0em;
      }

      .cls-2 {
        font-size: 141.54px;
      }

      .cls-2, .cls-3 {
        font-family: Kita, Kita;
      }

      .cls-3 {
        font-size: 41px;
      }

      .cls-7 {
        letter-spacing: -.02em;
      }

      .cls-8 {
        letter-spacing: -.02em;
      }

      .cls-9 {
        letter-spacing: -.04em;
      }
    </style>
  </defs>
  <rect class="cls-4" width="841.89" height="595.28"/>
  <text class="cls-3" transform="translate(322.87 479.71)"><tspan class="cls-9" x="0" y="0">Au</tspan><tspan class="cls-7" x="52.85" y="0">r</tspan><tspan x="76.05" y="0">a T</tspan><tspan class="cls-9" x="146.33" y="0">u</tspan><tspan class="cls-6" x="171.79" y="0">l</tspan><tspan class="cls-8" x="186.34" y="0">l</tspan><tspan class="cls-5" x="200.28" y="0">is</tspan></text>
  <path class="cls-1" d="M758.81,231.29c0-63.1-16.99-80.09-80.09-80.09,63.1,0,80.09-16.99,80.09-80.09,0,63.1,16.99,80.09,80.09,80.09-63.1,0-80.09,16.99-80.09,80.09Z"/>
  <path class="cls-1" d="M827.09,222.57c-22.21,0-28.19,5.98-28.19,28.19,0-22.21-5.98-28.19-28.19-28.19,22.21,0,28.19-5.98,28.19-28.19,0,22.21,5.98,28.19,28.19,28.19Z"/>
  <path class="cls-1" d="M418.83,154.13c-144.91,0-265.9,42.59-294.74,99.33.31-.45.61-.9.9-1.35.4-.62.86-1.09,1.37-1.45,31.03-49.81,140.41-86.62,270.61-86.62,154.32,0,279.43,51.71,279.43,115.51s-125.1,115.51-279.43,115.51c-126.8,0-233.85-34.92-268-82.76v1.52c35.81,52.61,152.01,91.15,289.87,91.15,166.4,0,301.29-56.15,301.29-125.42s-134.89-125.42-301.29-125.42Z"/>
  <path class="cls-1" d="M121.77,527.99c0-63.1-16.99-80.09-80.09-80.09,63.1,0,80.09-16.99,80.09-80.09,0,63.1,16.99,80.09,80.09,80.09-63.1,0-80.09,16.99-80.09,80.09Z"/>
  <path class="cls-1" d="M89.99,370.84c-22.21,0-28.19,5.98-28.19,28.19,0-22.21-5.98-28.19-28.19-28.19,22.21,0,28.19-5.98,28.19-28.19,0,22.21,5.98,28.19,28.19,28.19Z"/>
  <g>
    <path class="cls-1" d="M441.14,230.43l-40.35.21s9.68.4,9.68,12v26.87s1.33,13.25,12.5,14.56c0,0-11.97,1.93-12.5,14.14-.54,12.22-.54,21.99-.54,21.99,0,0-2.09,13.17-9.92,11.78l49.93-.15s-8.25.59-8.79-11.63-1.08-22.6-1.08-22.6c0,0-2.69-12.22-11.84-13.44,0,0,10.76-3.66,11.84-11.6s0-41.53,0-41.53l1.08-.61Z"/>
    <path class="cls-1" d="M437.15,284.18s23.18-6.4,26.03-16.18c2.85-9.77,2.26-18.78-2.6-26.63-6.82-11.03-21.13-10.94-21.13-10.94,0,0,31.16-1.71,39.78,9.29,8.63,10.99,13.28,42.47-25.04,44.07-38.32,1.61-17.04.39-17.04.39Z"/>
    <path class="cls-1" d="M437.26,284.95s22-.94,34.21,8.22c15.45,11.59,7.94,23.21,28.98,40.11l-36.16-1s-3.54-6.11-4.15-17.28c-.75-13.76-9.81-25.68-22.88-30.05h0Z"/>
    <g>
      <path class="cls-1" d="M224.16,277.24c-1.03,3.4-.79,7.09.85,10.24.84,1.61,3.57,3.99,4.51,4.43,11.43,5.38,28.36,12.84,30.16,23.61,2.28,13.69-5.86,17.78-11.73,18.32h64.03s-11.03.23-19.34-15.43c-6.08-11.45-19.51-29.77-54.33-34.04-10.19-1.25-14.66-6.72-11.13-16.77.06-.16.05-.33.07-.5l-3.08,10.15Z"/>
      <path class="cls-1" d="M233.19,297.41s-3.29-.58-3.66-.61c-22.39-1.61-27.69,26.84-7.34,36.32,1.76.82,4.51,1.33,6.35,1.33l-45.77.69s4.88-1.45,13.61-18.91c9.16-18.32,26.55-23.76,36.82-18.82Z"/>
      <path class="cls-1" d="M239.41,226.42l35.35,62.35s-5.1-9.18-16.54-13.34c-15-5.46-32.84-16.44-18.82-49Z"/>
    </g>
    <g>
      <path class="cls-1" d="M545.69,274.78c-1.03,3.4-.79,7.09.85,10.24.84,1.61,3.57,3.99,4.51,4.43,11.43,5.38,28.36,12.84,30.16,23.61,2.28,13.69-5.86,17.78-11.73,18.32h64.03s-11.03.23-19.34-15.43c-6.08-11.45-19.51-29.77-54.33-34.04-10.19-1.25-14.66-6.72-11.13-16.77.06-.16.05-.33.07-.5l-3.08,10.15Z"/>
      <path class="cls-1" d="M554.71,294.95s-3.29-.58-3.66-.61c-22.39-1.61-27.69,26.84-7.34,36.32,1.76.82,4.51,1.33,6.35,1.33l-45.77.69s4.88-1.45,13.61-18.91c9.16-18.32,26.55-23.76,36.82-18.82Z"/>
      <path class="cls-1" d="M560.93,223.96l35.35,62.35s-5.1-9.18-16.54-13.34c-15-5.46-32.84-16.44-18.82-49Z"/>
    </g>
    <text class="cls-2" transform="translate(293.7 330.47)"><tspan x="0" y="0">U</tspan></text>
    <path class="cls-1" d="M381.24,231.68h-13.8s13.85,3.39,14.22,13.3c.37,9.92,0,58.83,0,58.83,0,0-.77,25.72-24.53,26.02-23.76.3-17.57-28.8-17.57-28.8l2.84,26.29,3.57,4.77,16.2-.36,4.95-1.26,5.76-2.05,2.94-1.84,3.67-3.67,2.94-4.41,1.84-5.14,1.47-5.14.37-5.04v-57.13"/>
  </g>
</svg>