<?xml version="1.0" encoding="UTF-8"?>
<svg id="Camada_4" data-name="Camada 4" xmlns="http://www.w3.org/2000/svg" viewBox="0 0 841.89 595.28">
  <defs>
    <style>
      .cls-1, .cls-2 {
        fill: #6c1e23;
      }

      .cls-3 {
        fill: #eee6d5;
      }

      .cls-4 {
        letter-spacing: 0em;
      }

      .cls-5 {
        fill: #1d1d1b;
        font-size: 41px;
      }

      .cls-5, .cls-2 {
        font-family: Kita, Kita;
      }

      .cls-6 {
        letter-spacing: 0em;
      }

      .cls-2 {
        font-size: 156.17px;
      }

      .cls-7 {
        letter-spacing: -.02em;
      }

      .cls-8 {
        letter-spacing: -.02em;
      }

      .cls-9 {
        letter-spacing: -.04em;
      }
    </style>
  </defs>
  <rect class="cls-3" width="841.89" height="595.28"/>
  <g>
    <path class="cls-1" d="M455.16,229.03l-44.53.24s10.68.44,10.68,13.24v29.65s1.46,14.62,13.8,16.07c0,0-13.2,2.13-13.8,15.61-.59,13.48-.59,24.26-.59,24.26,0,0-2.3,14.53-10.95,12.99l55.09-.16s-9.1.65-9.7-12.83c-.59-13.48-1.19-24.94-1.19-24.94,0,0-2.97-13.48-13.06-14.83,0,0,11.88-4.04,13.06-12.8,1.19-8.76,0-45.83,0-45.83l1.19-.67Z"/>
    <path class="cls-1" d="M450.75,288.33s13.38-.67,16.53-11.46c3.15-10.78,3.78-37.07-.03-42.46s-13.96-5.39-13.96-5.39c0,0,34.38-1.88,43.9,10.25,9.52,12.13,14.66,46.86-27.63,48.63-42.29,1.77-18.8.43-18.8.43Z"/>
    <path class="cls-1" d="M450.87,289.18s24.27-1.04,37.75,9.07c17.05,12.79,8.76,25.61,31.97,44.25l-39.9-1.1s-3.91-6.75-4.57-19.07c-.82-15.18-10.83-28.33-25.25-33.15h0Z"/>
    <g>
      <path class="cls-1" d="M215.74,280.67c-1.14,3.75-.87,7.82.94,11.3.93,1.78,3.94,4.4,4.98,4.89,12.62,5.94,31.3,14.17,33.28,26.05,2.52,15.1-6.46,19.62-12.95,20.22h70.65s-12.17.25-21.34-17.02c-6.71-12.63-21.53-32.85-59.95-37.56-11.25-1.38-16.17-7.41-12.28-18.51.06-.17.05-.37.08-.55l-3.4,11.2Z"/>
      <path class="cls-1" d="M225.7,302.93s-3.63-.64-4.04-.67c-24.71-1.77-30.55,29.61-8.09,40.08,1.94.9,4.98,1.47,7,1.47l-50.5.76s5.38-1.6,15.02-20.87c10.11-20.22,29.3-26.22,40.62-20.76Z"/>
      <path class="cls-1" d="M232.57,224.6l39.01,68.79s-5.63-10.13-18.25-14.72c-16.55-6.02-36.23-18.14-20.76-54.07Z"/>
    </g>
    <g>
      <path class="cls-1" d="M574.94,278.65c-1.14,3.75-.87,7.82.94,11.3.93,1.78,3.94,4.4,4.98,4.89,12.62,5.94,31.3,14.17,33.28,26.05,2.52,15.1-6.46,19.62-12.95,20.22h70.65s-12.17.25-21.34-17.02c-6.71-12.63-21.53-32.85-59.95-37.56-11.25-1.38-16.17-7.41-12.28-18.51.06-.17.05-.37.08-.55l-3.4,11.2Z"/>
      <path class="cls-1" d="M584.9,300.91s-3.63-.64-4.04-.67c-24.71-1.77-30.55,29.61-8.09,40.08,1.94.9,4.98,1.47,7,1.47l-50.5.76s5.38-1.6,15.02-20.87c10.11-20.22,29.3-26.22,40.62-20.76Z"/>
      <path class="cls-1" d="M591.76,222.57l39.01,68.79s-5.63-10.13-18.25-14.72c-16.55-6.02-36.23-18.14-20.76-54.07Z"/>
    </g>
    <g>
      <text class="cls-2" transform="translate(292.47 339.41)"><tspan x="0" y="0">U</tspan></text>
      <path class="cls-1" d="M389.06,230.4h-15.22s18.57,7.46,18.98,18.4c.41,10.94,0,60.27,0,60.27,0,0,1.77,29.85-24.44,30.18-26.21.33-25.3-32.33-25.3-32.33l3.14,29.01,3.94,5.26,17.88-.4,5.46-1.39,6.36-2.26,3.24-2.03,4.05-4.05,3.24-4.86,2.03-5.67,1.62-5.67.41-5.56v-63.03"/>
    </g>
  </g>
  <text class="cls-5" transform="translate(303.23 419.74)"><tspan class="cls-9" x="0" y="0">Au</tspan><tspan class="cls-7" x="52.85" y="0">r</tspan><tspan x="76.05" y="0">a T</tspan><tspan class="cls-9" x="146.33" y="0">u</tspan><tspan class="cls-6" x="171.79" y="0">l</tspan><tspan class="cls-8" x="186.34" y="0">l</tspan><tspan class="cls-4" x="200.28" y="0">is</tspan></text>
</svg>