<?xml version="1.0" encoding="UTF-8"?>
<svg xmlns="http://www.w3.org/2000/svg" viewBox="0 0 1920 1080">
  <defs>
    <style>
      .cls-1, .cls-2 {
        fill: #fff2d9;
      }

      .cls-3 {
        fill: #fff;
      }

      .cls-2 {
        font-family: Kita, Kita;
        font-size: 354.14px;
      }

      .cls-4 {
        fill: #7a0022;
        stroke: #fff;
        stroke-miterlimit: 10;
      }
    </style>
  </defs>
  <g id="Camada_2" data-name="Camada 2">
    <rect class="cls-4" y="-21" width="1920" height="1101"/>
  </g>
  <g id="Camada_9" data-name="Camada 9">
    <polygon class="cls-1" points="1430.42 172.43 1424.75 192.2 1415.48 237.54 1411.65 272.62 1410.96 296.74 1412.3 321.65 1414.8 339.5 1419.31 358.82 1423.48 371.29 1429.54 385.1 1438.92 401.04 1453.52 422.21 1463.8 435.58 1474.18 447.76 1487.26 461.85 1494.26 470.25 1499.17 479 1503.23 493.68 1505.16 509.32 1506.77 537.18 1507.83 562.78 1507.83 578.73 1507.23 600.08 1504.99 619.11 1501.25 634.82 1496.25 646.51 1490.6 654.15 1484.6 658.73 1479.06 660.9 1472.02 661.96 1456.56 664.67 1438.5 669.45 1430.91 673.59 1426.08 677.6 1426.65 680.4 1430.91 683.48 1445.48 686.83 1463.34 688.46 1495.94 689.25 1532.29 689.2 1566.65 688.07 1589.68 684.53 1595.3 682.25 1597.43 679.05 1596.37 675.85 1592.1 673.71 1585.7 670.51 1579.3 668.38 1575.03 666.25 1565.43 664.11 1556.9 663.05 1548.37 661.98 1541.97 659.85 1535.57 656.65 1530.23 651.31 1524.9 642.78 1522.77 636.38 1519.57 626.78 1518.5 620.38 1516.69 605.6 1515.76 592.37 1515.38 578.63 1515.4 567.29 1515.49 562.14 1515.83 550.94 1516.59 535.23 1518.56 506.56 1520.31 493.29 1522.37 484.43 1525.51 476.39 1528.81 470.85 1536.09 462.02 1546.85 450.49 1557.49 438.28 1567.08 426.11 1579.08 409.29 1587.97 395.76 1595.69 381.5 1601.77 366.4 1605.97 350.51 1609.17 336.64 1611.61 316.79 1612.5 295.73 1611.64 270.09 1609.17 245.98 1605.97 226.78 1601.72 204.69 1597.43 187.31 1593.04 172.48 1581.43 175.58 1563.3 176.64 1535.07 177.77 1492.17 177.77 1445.97 175.58 1430.42 172.43"/>
    <path class="cls-4" d="M1597.16,309.97c-7.64,68.77-18.22,76.3-36.68,102.39-19.39,27.41-73.77,24.69-94.75-1.53-51.87-64.83-35.1-122.62-35.1-122.62,0,0,48.06,34.34,83.31-9.69,35.25-44.03,83.41-22.94,83.41-22.94"/>
  </g>
  <g id="Camada_10" data-name="Camada 10">
    <path class="cls-3" d="M916.64,564.54s12.34-.83,15.4.7-1.74-1.53-1.74-1.53h-2.84"/>
    <text class="cls-2" transform="translate(541.64 678.01)"><tspan x="0" y="0">U</tspan></text>
    <g>
      <path class="cls-1" d="M910.55,427.7l-100.97.54s24.21.99,24.21,30.03v67.24s3.32,33.14,31.29,36.44c0,0-29.94,4.82-31.29,35.39-1.35,30.56-1.35,55.01-1.35,55.01,0,0-5.22,32.95-24.83,29.46l124.92-.36s-20.64,1.47-21.99-29.1c-1.35-30.56-2.69-56.54-2.69-56.54,0,0-6.73-30.56-29.63-33.62,0,0,26.93-9.17,29.63-29.04,2.69-19.87,0-103.92,0-103.92l2.69-1.53Z"/>
      <path class="cls-1" d="M901.47,562.18s32.21-1.53,39.79-25.98c7.58-24.45,9.11-84.05-.06-96.27-9.17-12.23-33.62-12.23-33.62-12.23,0,0,88.63-4.58,111.56,22.92,22.92,27.51,29.43,106.57-72.39,110.59-101.82,4.02-45.28.97-45.28.97Z"/>
      <path class="cls-1" d="M900.83,564.1s55.03-2.36,85.6,20.57c38.66,28.99,19.87,58.07,72.5,100.35l-90.47-2.5s-8.86-15.3-10.37-43.24c-1.87-34.43-24.55-64.24-57.26-75.18h0Z"/>
    </g>
    <g>
      <path class="cls-1" d="M1185.11,537.5c-2.58,8.5-1.98,17.74,2.13,25.62,2.1,4.04,8.92,9.98,11.28,11.09,28.61,13.46,70.97,32.13,75.46,59.06,5.71,34.24-14.65,44.5-29.36,45.85h160.2s-27.6.56-48.4-38.6c-15.21-28.64-48.83-74.48-135.93-85.18-25.51-3.13-36.68-16.81-27.85-41.97.14-.4.12-.83.19-1.26l-7.72,25.39Z"/>
      <path class="cls-1" d="M1207.7,587.97s-8.23-1.46-9.17-1.53c-56.03-4.02-69.27,67.15-18.36,90.88,4.39,2.05,11.29,3.33,15.88,3.33l-114.52,1.72s12.21-3.64,34.05-47.32c22.92-45.85,66.44-59.45,92.12-47.08Z"/>
      <path class="cls-1" d="M1223.27,410.34l88.46,155.99s-12.77-22.97-41.38-33.38c-37.53-13.65-82.16-41.14-47.08-122.61Z"/>
    </g>
    <g>
      <path class="cls-1" d="M350.33,535.97c-2.58,8.5-1.98,17.74,2.13,25.62,2.1,4.04,8.92,9.98,11.28,11.09,28.61,13.46,70.97,32.13,75.46,59.06,5.71,34.24-14.65,44.5-29.36,45.85h160.2s-27.6.56-48.4-38.6c-15.21-28.64-48.83-74.48-135.93-85.18-25.51-3.13-36.68-16.81-27.85-41.97.14-.4.12-.83.19-1.26l-7.72,25.39Z"/>
      <path class="cls-1" d="M372.91,586.44s-8.23-1.46-9.17-1.53c-56.03-4.02-69.27,67.15-18.36,90.88,4.39,2.05,11.29,3.33,15.88,3.33l-114.52,1.72s12.21-3.64,34.05-47.32c22.92-45.85,66.44-59.45,92.12-47.08Z"/>
      <path class="cls-1" d="M388.49,408.81l88.46,155.99s-12.77-22.97-41.38-33.38c-37.53-13.65-82.16-41.14-47.08-122.61Z"/>
    </g>
  </g>
</svg>