<?xml version="1.0" encoding="UTF-8"?>
<svg xmlns="http://www.w3.org/2000/svg" viewBox="0 0 1920 1080">
  <defs>
    <style>
      .cls-1 {
        font-family: Kita, Kita;
        font-size: 390.07px;
      }

      .cls-1, .cls-2 {
        fill: #f9f3ea;
      }

      .cls-3 {
        fill: #fff;
      }

      .cls-4 {
        fill: #7a0022;
        stroke: #fff;
        stroke-miterlimit: 10;
      }
    </style>
  </defs>
  <g id="Camada_2" data-name="Camada 2">
    <rect class="cls-4" y="-10.5" width="1920" height="1101"/>
  </g>
  <g id="Camada_10" data-name="Camada 10">
    <path class="cls-3" d="M1096.93,540.58s13.59-.92,16.96.77c3.37,1.68-1.92-1.68-1.92-1.68h-3.13"/>
    <text class="cls-1" transform="translate(683.89 665.57)"><tspan x="0" y="0">U</tspan></text>
    <g>
      <path class="cls-2" d="M1090.22,389.86l-111.21.59s26.67,1.09,26.67,33.07v74.06s3.66,36.51,34.46,40.13c0,0-32.98,5.31-34.46,38.98-1.48,33.66-1.48,60.6-1.48,60.6,0,0-5.75,36.29-27.35,32.45l137.6-.4s-22.74,1.61-24.22-32.05c-1.48-33.66-2.97-62.28-2.97-62.28,0,0-7.42-33.66-32.63-37.03,0,0,29.67-10.1,32.63-31.98,2.97-21.88,0-114.46,0-114.46l2.97-1.68Z"/>
      <path class="cls-2" d="M1080.22,537.98s35.48-1.68,43.83-28.61c8.35-26.93,10.03-92.58-.07-106.04-10.1-13.47-37.03-13.47-37.03-13.47,0,0,97.63-5.05,122.87,25.25,25.25,30.3,32.41,117.38-79.74,121.81-112.15,4.43-49.87,1.06-49.87,1.06Z"/>
      <path class="cls-2" d="M1079.51,540.09s60.62-2.59,94.28,22.65c42.58,31.94,21.88,63.96,79.86,110.53l-99.65-2.76s-9.76-16.85-11.43-47.63c-2.06-37.92-27.05-70.76-63.06-82.8h0Z"/>
    </g>
    <g>
      <path class="cls-2" d="M482.88,502.86c-2.85,9.36-2.18,19.54,2.34,28.22,2.32,4.44,9.83,11,12.43,12.22,31.51,14.83,78.17,35.39,83.11,65.06,6.29,37.72-16.14,49.01-32.33,50.5h176.45s-30.4.62-53.31-42.52c-16.75-31.54-53.78-82.04-149.72-93.82-28.1-3.45-40.4-18.52-30.68-46.23.15-.44.13-.92.21-1.38l-8.5,27.96Z"/>
      <path class="cls-2" d="M507.75,558.45s-9.07-1.61-10.1-1.68c-61.71-4.43-76.3,73.96-20.22,100.11,4.84,2.26,12.44,3.66,17.49,3.66l-126.14,1.9s13.45-4,37.51-52.12c25.25-50.5,73.18-65.48,101.46-51.86Z"/>
      <path class="cls-2" d="M524.91,362.8l97.43,171.81s-14.06-25.3-45.57-36.76c-41.34-15.04-90.49-45.31-51.86-135.05Z"/>
    </g>
    <g>
      <path class="cls-2" d="M1393.49,516.33c-2.85,9.36-2.18,19.54,2.34,28.22,2.32,4.44,9.83,11,12.43,12.22,31.51,14.83,78.17,35.39,83.11,65.06,6.29,37.72-16.14,49.01-32.33,50.5h176.45s-30.4.62-53.31-42.52c-16.75-31.54-53.78-82.04-149.72-93.82-28.1-3.45-40.4-18.52-30.68-46.23.15-.44.13-.92.21-1.38l-8.5,27.96Z"/>
      <path class="cls-2" d="M1418.37,571.91s-9.07-1.61-10.1-1.68c-61.71-4.43-76.3,73.96-20.22,100.11,4.84,2.26,12.44,3.66,17.49,3.66l-126.14,1.9s13.45-4,37.51-52.12c25.25-50.5,73.18-65.48,101.46-51.86Z"/>
      <path class="cls-2" d="M1435.52,376.27l97.43,171.81s-14.06-25.3-45.57-36.76c-41.34-15.04-90.49-45.31-51.86-135.05Z"/>
    </g>
  </g>
</svg>