<?xml version="1.0" encoding="UTF-8"?>
<svg xmlns="http://www.w3.org/2000/svg" viewBox="0 0 841.89 595.28">
  <defs>
    <style>
      .cls-1 {
        fill: none;
        stroke: #701f29;
        stroke-miterlimit: 10;
        stroke-width: 5px;
      }

      .cls-2, .cls-3 {
        fill: #6c1e23;
      }

      .cls-4 {
        fill: #eee6d5;
      }

      .cls-3 {
        font-family: Kita, Kita;
        font-size: 104.62px;
      }
    </style>
  </defs>
  <g id="Camada_5" data-name="Camada 5">
    <circle class="cls-4" cx="420.94" cy="297.64" r="217.88"/>
    <circle class="cls-1" cx="420.94" cy="297.64" r="194.06"/>
  </g>
  <g id="Camada_6" data-name="Camada 6">
    <g>
      <path class="cls-2" d="M448.55,256.08l-29.83.16s7.15.29,7.15,8.87v19.86s.98,9.79,9.24,10.76c0,0-8.84,1.42-9.24,10.45-.4,9.03-.4,16.25-.4,16.25,0,0-1.54,9.73-7.34,8.7l36.91-.11s-6.1.43-6.5-8.6-.8-16.7-.8-16.7c0,0-1.99-9.03-8.75-9.93,0,0,7.96-2.71,8.75-8.58s0-30.7,0-30.7l.8-.45Z"/>
      <path class="cls-2" d="M445.6,295.81s17.13-4.73,19.24-11.96c2.11-7.22,1.67-13.88-1.92-19.69-5.04-8.16-15.62-8.08-15.62-8.08,0,0,23.03-1.26,29.41,6.87s9.82,31.39-18.51,32.58c-28.33,1.19-12.6.29-12.6.29Z"/>
      <path class="cls-2" d="M445.68,296.37s16.26-.7,25.29,6.08c11.42,8.57,5.87,17.16,21.42,29.65l-26.73-.74s-2.62-4.52-3.06-12.77c-.55-10.17-7.25-18.98-16.91-22.21h0Z"/>
      <g>
        <path class="cls-2" d="M288.17,290.68c-.76,2.51-.58,5.24.63,7.57.62,1.19,2.64,2.95,3.33,3.28,8.45,3.98,20.97,9.49,22.29,17.45,1.69,10.12-4.33,13.15-8.67,13.54h47.33s-8.15.17-14.3-11.4c-4.49-8.46-14.42-22-40.16-25.17-7.54-.93-10.84-4.97-8.23-12.4.04-.12.04-.25.06-.37l-2.28,7.5Z"/>
        <path class="cls-2" d="M294.84,305.58s-2.43-.43-2.71-.45c-16.55-1.19-20.46,19.84-5.42,26.85,1.3.61,3.34.98,4.69.98l-33.83.51s3.61-1.07,10.06-13.98c6.77-13.54,19.63-17.56,27.21-13.91Z"/>
        <path class="cls-2" d="M299.44,253.11l26.13,46.08s-3.77-6.79-12.22-9.86c-11.09-4.03-24.27-12.15-13.91-36.22Z"/>
      </g>
      <g>
        <path class="cls-2" d="M525.83,288.86c-.76,2.51-.58,5.24.63,7.57.62,1.19,2.64,2.95,3.33,3.28,8.45,3.98,20.97,9.49,22.29,17.45,1.69,10.12-4.33,13.15-8.67,13.54h47.33s-8.15.17-14.3-11.4c-4.49-8.46-14.42-22-40.16-25.17-7.54-.93-10.84-4.97-8.23-12.4.04-.12.04-.25.06-.37l-2.28,7.5Z"/>
        <path class="cls-2" d="M532.5,303.77s-2.43-.43-2.71-.45c-16.55-1.19-20.46,19.84-5.42,26.85,1.3.61,3.34.98,4.69.98l-33.83.51s3.61-1.07,10.06-13.98c6.77-13.54,19.63-17.56,27.21-13.91Z"/>
        <path class="cls-2" d="M537.1,251.29l26.13,46.08s-3.77-6.79-12.22-9.86c-11.09-4.03-24.27-12.15-13.91-36.22Z"/>
      </g>
      <text class="cls-3" transform="translate(339.57 330.03)"><tspan x="0" y="0">U</tspan></text>
      <path class="cls-2" d="M404.27,257h-10.2s10.24,2.5,10.51,9.83c.27,7.33,0,43.49,0,43.49,0,0-.57,19.02-18.13,19.24-17.56.22-12.99-21.29-12.99-21.29l2.1,19.43,2.64,3.52,11.98-.26,3.66-.93,4.26-1.51,2.17-1.36,2.71-2.71,2.17-3.26,1.36-3.8,1.09-3.8.27-3.72v-42.23"/>
    </g>
  </g>
</svg>