<?xml version="1.0" encoding="UTF-8"?>
<svg xmlns="http://www.w3.org/2000/svg" viewBox="0 0 1920 1080">
  <defs>
    <style>
      .cls-1 {
        font-family: Bestime, Bestime;
        font-size: 76.4px;
      }

      .cls-1, .cls-2, .cls-3 {
        fill: #0327ca;
      }

      .cls-4 {
        fill: #ece6e3;
      }

      .cls-2 {
        opacity: .42;
      }

      .cls-5 {
        stroke-width: 13px;
      }

      .cls-5, .cls-6, .cls-7 {
        stroke-linecap: round;
      }

      .cls-5, .cls-6, .cls-7, .cls-8 {
        fill: none;
        stroke: #0327ca;
        stroke-miterlimit: 10;
      }

      .cls-6 {
        stroke-width: 18px;
      }

      .cls-7 {
        stroke-width: 35px;
      }

      .cls-8 {
        stroke-width: 30px;
      }
    </style>
  </defs>
  <g id="Camada_1" data-name="Camada 1">
    <rect class="cls-4" y="-29.97" width="1940" height="1110.97"/>
  </g>
  <g id="Camada_2" data-name="Camada 2">
    <g>
      <path class="cls-7" d="M984.21,204.16c11.85.9,23.53,2.42,35,4.52,129.83,23.83,233.36,122.86,263.77,250.26"/>
      <path class="cls-7" d="M936.75,869.55c-11.85-.9-23.53-2.42-35-4.52-129.83-23.83-233.36-122.86-263.77-250.26"/>
      <path class="cls-3" d="M1289.42,494.25l1.95,5.99c2.97,9.15,11.5,15.35,21.12,15.35h6.3c4.84,0,6.85,6.19,2.93,9.03l-5.09,3.7c-7.78,5.66-11.04,15.68-8.07,24.83l1.95,5.99c1.49,4.6-3.77,8.43-7.68,5.58l-5.09-3.7c-7.78-5.66-18.33-5.66-26.11,0l-5.09,3.7c-3.91,2.84-9.18-.98-7.68-5.58l1.95-5.99c2.97-9.15-.28-19.18-8.07-24.83l-5.09-3.7c-3.91-2.84-1.9-9.03,2.93-9.03h6.3c9.62,0,18.15-6.2,21.12-15.35l1.95-5.99c1.49-4.6,8-4.6,9.5,0Z"/>
      <path class="cls-3" d="M643,494.25l1.95,5.99c2.97,9.15,11.5,15.35,21.12,15.35h6.3c4.84,0,6.85,6.19,2.93,9.03l-5.09,3.7c-7.78,5.66-11.04,15.68-8.07,24.83l1.95,5.99c1.49,4.6-3.77,8.43-7.68,5.58l-5.09-3.7c-7.78-5.66-18.33-5.66-26.11,0l-5.09,3.7c-3.91,2.84-9.18-.98-7.68-5.58l1.95-5.99c2.97-9.15-.28-19.18-8.07-24.83l-5.09-3.7c-3.91-2.84-1.9-9.03,2.93-9.03h6.3c9.62,0,18.15-6.2,21.12-15.35l1.95-5.99c1.49-4.6,8-4.6,9.5,0Z"/>
      <polygon class="cls-2" points="1113.18 656.22 1089.35 699.68 1101.27 734.88 1118 721.02 1135.23 724.73 1152.92 710 1144.41 689.17 1113.18 656.22"/>
      <path class="cls-2" d="M818.55,499.39s-23.63,58-17.55,82.86c6.07,24.87,18.05,72.27,33.24,76.66l14.15-22.97,30.52-8.36,28.09-31.98,5.46-16.28s97.6,5.7,129.86-6.45l21.56-39.92,21.78,42.69,15.66,6.77,11.86,4.86,21.15,15.45-1.95-71.34-19.2-46.82-33.59-34.17-55.51-26.97.34,30.81s-85.65,0-190.19,51.12l-15.69-5.96Z"/>
      <path class="cls-2" d="M837.72,669.75l41.18,29.59-8.29,33.04h-12.3l-5.2-20.26-7.41,14.56s-25.74,2.94-31.27-8.12c-5.53-11.05,23.29-48.81,23.29-48.81Z"/>
      <g>
        <path class="cls-5" d="M981.45,669.98s4.02,1.22,10.84,2.05c11.36,1.38,30.48,1.65,51.7-6.7,3.97-1.56,8.12-3.04,12.39-3.03,4.59,0,15.49,4.45,9.69,15.85-5.45,10.71-47.78,19.62-76.44,16.29-13.03-1.51-22.38-6-22.44-14.79,0,0,.04-13.65,14.27-9.66Z"/>
        <line class="cls-5" x1="994.4" y1="675.35" x2="992.44" y2="689.3"/>
        <line class="cls-5" x1="1018.31" y1="673.98" x2="1019.21" y2="689.61"/>
        <line class="cls-5" x1="1041.89" y1="669.22" x2="1045.77" y2="686.23"/>
      </g>
      <g>
        <path class="cls-6" d="M953.24,515.68s-9.19,44.74-39.13,60.09"/>
        <g>
          <path class="cls-6" d="M935.28,646.85s26.71-42.37,64.47-8.29"/>
          <path class="cls-6" d="M1042.44,636.14s22.38-42.37,54.01-8.29"/>
          <line class="cls-6" x1="935.28" y1="625.3" x2="944.69" y2="636.14"/>
          <line class="cls-6" x1="958.76" y1="609.55" x2="960.29" y2="626.9"/>
          <line class="cls-6" x1="986.24" y1="609.55" x2="982.86" y2="627.72"/>
          <line class="cls-6" x1="1039.81" y1="616.92" x2="1047.48" y2="625.3"/>
          <line class="cls-6" x1="1062.83" y1="598.5" x2="1065.32" y2="614.59"/>
          <line class="cls-6" x1="1089.02" y1="603.86" x2="1084.02" y2="612.32"/>
          <path class="cls-6" d="M910.76,542.73s4.71,61.71-33.51,84.99"/>
          <g>
            <path class="cls-6" d="M768.12,428.12s-24.74,2.14-20.78-31.48c3.68-31.31,27.63-30.75,64.47-32.23"/>
            <path class="cls-6" d="M836.07,665.58c-43.49-50.81-38.15-111.93-38.15-111.93,0,0,5.12-37.98,18.97-54.13"/>
            <path class="cls-6" d="M768.12,428.12s-4.6,68.15,41.44,31.31"/>
            <path class="cls-6" d="M811.8,364.41s1.73-77.36,82.89-79.21c40.52-.92,45.13,12.89,45.13,41.44"/>
            <path class="cls-6" d="M876.33,636.72s-23.95-23.02-37.76,13.81c-13.81,36.84,34.08,41.44,34.08,41.44,8.28,11.33,22.22,21.26,35.67,25.94,4.85,1.69,27.33,9.48,47.82,11.83,191.37,22.01,158.73-147.38,158.73-147.38"/>
            <path class="cls-6" d="M861.32,656.38s11.33-1.24,15.94,13.5"/>
            <line class="cls-6" x1="869.28" y1="663.12" x2="857.91" y2="668.04"/>
            <path class="cls-6" d="M1059.15,509.67s1.14,9.28-.66,21.85-6.52,28.43-18.25,41.58"/>
            <path class="cls-6" d="M1084.02,575.78s-13.29-43.08-25.52-44.25"/>
            <path class="cls-6" d="M1014.92,509.67s7.39,42.46-23.01,66.1"/>
            <path class="cls-6" d="M982.86,515.68s2.61,38.61-29.63,63.48"/>
            <path class="cls-6" d="M832.72,670.63s-25.92,35.62-21.32,47.6c2.79,7.26,13.67,10.18,21.8,11.36,5.39.78,10.61-2.19,12.64-7.25l6.08-15.16,2.17,20.3c.33,3.12,2.97,5.49,6.11,5.49h0c5.15,0,9.53-3.74,10.34-8.82,1.46-9.18,4.02-22.25,6.7-22.34"/>
            <path class="cls-6" d="M1119.94,595.74s16.51,14.71,11.94,34.99c-4.57,20.27-20.35,25.63-20.35,25.63"/>
            <path class="cls-6" d="M1099.67,520.22s12.89,34.92,0,67.19"/>
            <path class="cls-6" d="M1127.49,605.41s38.36-117.09-77.62-171.14l-27.56-10.76"/>
            <path class="cls-6" d="M811.77,467.95c1.55,5.61,3.83,13.16,6.5,20.02,4.06,10.42,16,15.34,26.3,10.97,28.96-12.31,95.95-38.16,159.28-43.53,10.68-.91,18.8-9.99,18.32-20.69-.54-12.11-2.13-26.29-6.46-31.61-7.36-9.04-160.19,10.43-198.24,44.89-5.53,5.01-7.7,12.75-5.71,19.95Z"/>
            <path class="cls-6" d="M939.82,326.64s19.34-28.55,52.5-15.66c19.09,7.43,23.45,29.47,26.71,46.05,0,0,41.09,1.94,39.6,29.47-1.49,27.53-42.91,16.6-42.91,16.6"/>
            <path class="cls-6" d="M1089,703.19l5.83,26.69c1.6,7.32,8.94,11.86,16.2,10.02h0c1.13-.29,1.92-1.3,1.92-2.47v-11.55c0-2.56,3.35-3.51,4.7-1.35l4.61,7.38c.67,1.07,2.02,1.49,3.17.99,6.48-2.84,26.35-12.33,27.13-22.35.92-11.97-34.13-48.13-34.13-48.13"/>
          </g>
        </g>
      </g>
      <circle class="cls-8" cx="960" cy="540" r="397.84"/>
      <text class="cls-1" transform="translate(659.13 487.13) rotate(-73.21)"><tspan x="0" y="0">B</tspan></text>
      <text class="cls-1" transform="translate(680.21 420.03) rotate(-61.85)"><tspan x="0" y="0">a</tspan></text>
      <text class="cls-1" transform="translate(703.71 375.91) rotate(-52.58)"><tspan x="0" y="0">b</tspan></text>
      <text class="cls-1" transform="translate(733.07 337.33) rotate(-43.53)"><tspan x="0" y="0">y</tspan></text>
      <text class="cls-1" transform="translate(768.79 304.44) rotate(-37.31)"><tspan x="0" y="0">	</tspan></text>
      <text class="cls-1" transform="translate(769.5 302.56) rotate(-33.77)"><tspan x="0" y="0">C</tspan></text>
      <text class="cls-1" transform="translate(812.11 274) rotate(-24.34)"><tspan x="0" y="0">h</tspan></text>
      <text class="cls-1" transform="translate(856.42 253.92) rotate(-15.4)"><tspan x="0" y="0">e</tspan></text>
      <text class="cls-1" transform="translate(900.49 241.88) rotate(-7.31)"><tspan x="0" y="0">f</tspan></text>
      <text class="cls-1" transform="translate(1260.59 589.26) rotate(106.79)"><tspan x="0" y="0">B</tspan></text>
      <text class="cls-1" transform="translate(1239.51 656.36) rotate(118.15)"><tspan x="0" y="0">a</tspan></text>
      <text class="cls-1" transform="translate(1216.01 700.48) rotate(127.42)"><tspan x="0" y="0">b</tspan></text>
      <text class="cls-1" transform="translate(1186.66 739.06) rotate(136.47)"><tspan x="0" y="0">y</tspan></text>
      <text class="cls-1" transform="translate(1150.93 771.95) rotate(142.69)"><tspan x="0" y="0">	</tspan></text>
      <text class="cls-1" transform="translate(1150.22 773.83) rotate(146.23)"><tspan x="0" y="0">C</tspan></text>
      <text class="cls-1" transform="translate(1107.61 802.39) rotate(155.66)"><tspan x="0" y="0">h</tspan></text>
      <text class="cls-1" transform="translate(1063.3 822.47) rotate(164.6)"><tspan x="0" y="0">e</tspan></text>
      <text class="cls-1" transform="translate(1019.23 834.51) rotate(172.69)"><tspan x="0" y="0">f</tspan></text>
    </g>
  </g>
</svg>