<?xml version="1.0" encoding="UTF-8"?>
<svg id="Camada_4" data-name="Camada 4" xmlns="http://www.w3.org/2000/svg" viewBox="0 0 661.73 586.55">
  <defs>
    <style>
      .cls-1 {
        fill: #6c1e23;
      }

      .cls-2, .cls-3 {
        fill: #eee6d5;
      }

      .cls-3 {
        font-family: Kita, Kita;
        font-size: 97.62px;
      }

      .cls-4 {
        fill: none;
        stroke: #eee6d5;
        stroke-miterlimit: 10;
        stroke-width: 4px;
      }
    </style>
  </defs>
  <circle class="cls-1" cx="330.86" cy="293.28" r="215.23"/>
  <circle class="cls-4" cx="330.86" cy="293.28" r="194.29"/>
  <g>
    <path class="cls-2" d="M355.76,255.87l-27.83.15s6.67.27,6.67,8.28v18.54s.91,9.14,8.62,10.04c0,0-8.25,1.33-8.62,9.75-.37,8.43-.37,15.17-.37,15.17,0,0-1.44,9.08-6.84,8.12l34.44-.1s-5.69.4-6.06-8.02c-.37-8.43-.74-15.59-.74-15.59,0,0-1.86-8.43-8.17-9.27,0,0,7.42-2.53,8.17-8s0-28.65,0-28.65l.74-.42Z"/>
    <path class="cls-2" d="M353.01,292.94s15.99-4.42,17.95-11.16c1.97-6.74,1.56-12.95-1.79-18.37-4.7-7.61-14.57-7.54-14.57-7.54,0,0,21.49-1.18,27.44,6.41s9.16,29.29-17.27,30.4c-26.43,1.11-11.75.27-11.75.27Z"/>
    <path class="cls-2" d="M353.08,293.47s15.17-.65,23.6,5.67c10.66,7.99,5.48,16.01,19.99,27.66l-24.94-.69s-2.44-4.22-2.86-11.92c-.51-9.49-6.77-17.71-15.78-20.72h0Z"/>
    <g>
      <path class="cls-2" d="M206.11,288.16c-.71,2.34-.55,4.89.59,7.06.58,1.11,2.46,2.75,3.11,3.06,7.89,3.71,19.56,8.86,20.8,16.28,1.57,9.44-4.04,12.27-8.09,12.64h44.16s-7.61.16-13.34-10.64c-4.19-7.89-13.46-20.53-37.47-23.48-7.03-.86-10.11-4.63-7.68-11.57.04-.11.03-.23.05-.35l-2.13,7Z"/>
      <path class="cls-2" d="M212.33,302.07s-2.27-.4-2.53-.42c-15.45-1.11-19.09,18.51-5.06,25.05,1.21.56,3.11.92,4.38.92l-31.57.47s3.37-1,9.39-13.04c6.32-12.64,18.31-16.39,25.39-12.98Z"/>
      <path class="cls-2" d="M216.62,253.1l24.38,43s-3.52-6.33-11.41-9.2c-10.35-3.76-22.65-11.34-12.98-33.8Z"/>
    </g>
    <g>
      <path class="cls-2" d="M427.86,286.46c-.71,2.34-.55,4.89.59,7.06.58,1.11,2.46,2.75,3.11,3.06,7.89,3.71,19.56,8.86,20.8,16.28,1.57,9.44-4.04,12.27-8.09,12.64h44.16s-7.61.16-13.34-10.64c-4.19-7.89-13.46-20.53-37.47-23.48-7.03-.86-10.11-4.63-7.68-11.57.04-.11.03-.23.05-.35l-2.13,7Z"/>
      <path class="cls-2" d="M434.09,300.37s-2.27-.4-2.53-.42c-15.45-1.11-19.09,18.51-5.06,25.05,1.21.56,3.11.92,4.38.92l-31.57.47s3.37-1,9.39-13.04c6.32-12.64,18.31-16.39,25.39-12.98Z"/>
      <path class="cls-2" d="M438.38,251.41l24.38,43s-3.52-6.33-11.41-9.2c-10.35-3.76-22.65-11.34-12.98-33.8Z"/>
    </g>
    <text class="cls-3" transform="translate(254.07 324.87)"><tspan x="0" y="0">U</tspan></text>
    <path class="cls-2" d="M314.44,256.73h-9.52s9.55,2.34,9.8,9.18,0,40.58,0,40.58c0,0-.53,17.74-16.92,17.95-16.39.21-12.12-19.87-12.12-19.87l1.96,18.13,2.46,3.29,11.18-.25,3.41-.87,3.97-1.41,2.03-1.27,2.53-2.53,2.03-3.04,1.27-3.55,1.01-3.55.25-3.47v-39.4"/>
  </g>
</svg>